<svg xmlns="http://www.w3.org/2000/svg" id="Bold" viewBox="0 0 24 24" width="300" height="300" version="1.1" xmlns:xlink="http://www.w3.org/1999/xlink" xmlns:svgjs="http://svgjs.dev/svgjs"><g transform="matrix(-0.67,8.205133554287267e-17,-8.205133554287267e-17,-0.67,20.040000000000003,21.71)"><path d="M8,4H4A4,4,0,0,0,0,8v4a2,2,0,0,0,2,2H7a5.006,5.006,0,0,1-5,5,1.5,1.5,0,0,0,0,3,8.009,8.009,0,0,0,8-8V6A2,2,0,0,0,8,4Z" fill="#fafafaff" data-original-color="#000000ff" stroke="none"/><path d="M22,4H18a4,4,0,0,0-4,4v4a2,2,0,0,0,2,2h5a5.006,5.006,0,0,1-5,5,1.5,1.5,0,0,0,0,3,8.009,8.009,0,0,0,8-8V6A2,2,0,0,0,22,4Z" fill="#fafafaff" data-original-color="#000000ff" stroke="none"/></g></svg>