<svg width="480" height="111" viewBox="0 0 480 111" fill="none" xmlns="http://www.w3.org/2000/svg">
<path d="M103.24 73V29.26H110.044L119.008 50.32V29.26H127V73H120.466L111.502 50.32V73H103.24ZM133.51 73V29.26H153.166V35.848H143.176V46.702H150.79V53.398H143.176V66.466H153.274V73H133.51ZM161.172 73L155.88 29.26H164.088L166.68 54.748L169.974 29.314H176.4L179.856 54.586L182.502 29.26H190.602L185.364 73H176.94L173.214 46.594L169.704 73H161.172ZM209.131 73V29.26H228.031V35.794H218.797V46.81H226.843V53.56H218.797V73H209.131ZM232.599 73V29.26H242.265V73H232.599ZM252.729 73V36.442H246.141V29.26H268.983V36.442H262.449V73H252.729ZM272.834 73V29.26H279.638L288.602 50.32V29.26H296.594V73H290.06L281.096 50.32V73H272.834ZM303.103 73V29.26H322.759V35.848H312.769V46.702H320.383V53.398H312.769V66.466H322.867V73H303.103ZM338.866 73.648C336.13 73.648 333.844 73.162 332.008 72.19C330.172 71.218 328.786 69.724 327.85 67.708C326.914 65.656 326.392 63.01 326.284 59.77L334.546 58.528C334.582 60.4 334.744 61.912 335.032 63.064C335.356 64.216 335.788 65.044 336.328 65.548C336.904 66.052 337.588 66.304 338.38 66.304C339.388 66.304 340.036 65.962 340.324 65.278C340.648 64.594 340.81 63.874 340.81 63.118C340.81 61.318 340.378 59.806 339.514 58.582C338.65 57.322 337.48 56.062 336.004 54.802L332.224 51.508C330.568 50.104 329.164 48.52 328.012 46.756C326.896 44.956 326.338 42.742 326.338 40.114C326.338 36.406 327.436 33.58 329.632 31.636C331.828 29.656 334.816 28.666 338.596 28.666C340.936 28.666 342.808 29.062 344.212 29.854C345.652 30.646 346.732 31.69 347.452 32.986C348.208 34.246 348.712 35.596 348.964 37.036C349.252 38.44 349.414 39.79 349.45 41.086L341.134 42.112C341.098 40.816 341.008 39.7 340.864 38.764C340.756 37.792 340.504 37.054 340.108 36.55C339.712 36.01 339.1 35.74 338.272 35.74C337.372 35.74 336.706 36.118 336.274 36.874C335.878 37.63 335.68 38.386 335.68 39.142C335.68 40.762 336.058 42.094 336.814 43.138C337.606 44.146 338.632 45.208 339.892 46.324L343.51 49.51C345.418 51.13 347.02 52.966 348.316 55.018C349.648 57.07 350.314 59.608 350.314 62.632C350.314 64.684 349.846 66.556 348.91 68.248C347.974 69.904 346.642 71.218 344.914 72.19C343.222 73.162 341.206 73.648 338.866 73.648ZM365.76 73.648C363.024 73.648 360.738 73.162 358.902 72.19C357.066 71.218 355.68 69.724 354.744 67.708C353.808 65.656 353.286 63.01 353.178 59.77L361.44 58.528C361.476 60.4 361.638 61.912 361.926 63.064C362.25 64.216 362.682 65.044 363.222 65.548C363.798 66.052 364.482 66.304 365.274 66.304C366.282 66.304 366.93 65.962 367.218 65.278C367.542 64.594 367.704 63.874 367.704 63.118C367.704 61.318 367.272 59.806 366.408 58.582C365.544 57.322 364.374 56.062 362.898 54.802L359.118 51.508C357.462 50.104 356.058 48.52 354.906 46.756C353.79 44.956 353.232 42.742 353.232 40.114C353.232 36.406 354.33 33.58 356.526 31.636C358.722 29.656 361.71 28.666 365.49 28.666C367.83 28.666 369.702 29.062 371.106 29.854C372.546 30.646 373.626 31.69 374.346 32.986C375.102 34.246 375.606 35.596 375.858 37.036C376.146 38.44 376.308 39.79 376.344 41.086L368.028 42.112C367.992 40.816 367.902 39.7 367.758 38.764C367.65 37.792 367.398 37.054 367.002 36.55C366.606 36.01 365.994 35.74 365.166 35.74C364.266 35.74 363.6 36.118 363.168 36.874C362.772 37.63 362.574 38.386 362.574 39.142C362.574 40.762 362.952 42.094 363.708 43.138C364.5 44.146 365.526 45.208 366.786 46.324L370.404 49.51C372.312 51.13 373.914 52.966 375.21 55.018C376.542 57.07 377.208 59.608 377.208 62.632C377.208 64.684 376.74 66.556 375.804 68.248C374.868 69.904 373.536 71.218 371.808 72.19C370.116 73.162 368.1 73.648 365.76 73.648Z" fill="#FAFAFA"/>
<path d="M86.25 70.905V76.875C86.25 79.98 83.7337 82.5 80.625 82.5C79.965 82.5 79.3388 82.365 78.75 82.155V84.375C78.75 87.48 76.2337 90 73.125 90C70.0163 90 67.5 87.48 67.5 84.375V71.25H22.5V84.375C22.5 87.48 19.9837 90 16.875 90C13.7663 90 11.25 87.48 11.25 84.375V82.155C10.6612 82.365 10.035 82.5 9.375 82.5C6.26625 82.5 3.75 79.98 3.75 76.875V70.905C1.57125 70.1288 0 68.07 0 65.625C0 63.18 1.57125 61.1212 3.75 60.345V54.375C3.75 51.27 6.26625 48.75 9.375 48.75C10.035 48.75 10.6612 48.885 11.25 49.095V46.875C11.25 43.77 13.7663 41.25 16.875 41.25C19.9837 41.25 22.5 43.77 22.5 46.875V60H67.5V46.875C67.5 43.77 70.0163 41.25 73.125 41.25C76.2337 41.25 78.75 43.77 78.75 46.875V49.095C79.3388 48.885 79.965 48.75 80.625 48.75C83.7337 48.75 86.25 51.27 86.25 54.375V60.345C88.4287 61.1212 90 63.18 90 65.625C90 68.07 88.4287 70.1288 86.25 70.905ZM31.5863 33.705H43.125L37.6387 48.3188C36.6225 51.8775 41.3738 54.1163 43.4738 51.0713L61.3013 23.9775C62.7975 21.72 61.1813 18.705 58.4738 18.705H46.875L51.6562 5.09625C52.6012 2.64 50.7862 0 48.1575 0H41.055C39.4575 0 38.0325 1.0125 37.5113 2.5275L28.2787 29.2425C27.6075 31.4625 29.265 33.705 31.5863 33.705Z" fill="#B0F432"/>
</svg>
