<svg width="113" height="113" viewBox="0 0 113 113" fill="none" xmlns="http://www.w3.org/2000/svg">
<mask id="path-1-inside-1_67_21" fill="white">
<path d="M87.2791 81.5557C82.8764 86.9552 77.1398 91.1112 70.6373 93.6122C64.1347 96.1131 57.0917 96.8723 50.2055 95.8146C43.3193 94.7569 36.8288 91.919 31.3766 87.5818C25.9244 83.2446 21.6995 77.5585 19.1203 71.0866C16.5411 64.6147 15.697 57.5814 16.6715 50.6829C17.6461 43.7845 20.4055 37.2602 24.6766 31.7561C28.9477 26.2519 34.5824 21.9588 41.0227 19.3017C47.463 16.6446 54.4857 15.7157 61.3954 16.6069L61.0415 19.3502C54.6096 18.5205 48.0726 19.3852 42.0776 21.8586C36.0826 24.3319 30.8376 28.3282 26.8618 33.4518C22.8861 38.5753 20.3175 44.6484 19.4103 51.0698C18.5031 57.4913 19.2889 64.0382 21.6897 70.0626C24.0906 76.087 28.0233 81.3799 33.0985 85.4172C38.1738 89.4544 44.2154 92.0961 50.6254 93.0807C57.0354 94.0653 63.5914 93.3586 69.6443 91.0306C75.6973 88.7025 81.0372 84.834 85.1354 79.8078L87.2791 81.5557Z"/>
</mask>
<path d="M87.2791 81.5557C82.8764 86.9552 77.1398 91.1112 70.6373 93.6122C64.1347 96.1131 57.0917 96.8723 50.2055 95.8146C43.3193 94.7569 36.8288 91.919 31.3766 87.5818C25.9244 83.2446 21.6995 77.5585 19.1203 71.0866C16.5411 64.6147 15.697 57.5814 16.6715 50.6829C17.6461 43.7845 20.4055 37.2602 24.6766 31.7561C28.9477 26.2519 34.5824 21.9588 41.0227 19.3017C47.463 16.6446 54.4857 15.7157 61.3954 16.6069L61.0415 19.3502C54.6096 18.5205 48.0726 19.3852 42.0776 21.8586C36.0826 24.3319 30.8376 28.3282 26.8618 33.4518C22.8861 38.5753 20.3175 44.6484 19.4103 51.0698C18.5031 57.4913 19.2889 64.0382 21.6897 70.0626C24.0906 76.087 28.0233 81.3799 33.0985 85.4172C38.1738 89.4544 44.2154 92.0961 50.6254 93.0807C57.0354 94.0653 63.5914 93.3586 69.6443 91.0306C75.6973 88.7025 81.0372 84.834 85.1354 79.8078L87.2791 81.5557Z" fill="white" stroke="white" stroke-width="2" mask="url(#path-1-inside-1_67_21)"/>
<path d="M67.3443 53.9942L51.161 64.0491L50.5448 45.0065L67.3443 53.9942Z" fill="white"/>
</svg>
